<svg width="11" height="14" viewBox="0 0 11 14" fill="none" xmlns="http://www.w3.org/2000/svg">
<path d="M8.03679 1.78976V0.838953C8.03679 0.589062 7.83835 0.381836 7.59905 0.381836C7.35975 0.381836 7.1613 0.589062 7.1613 0.838953V1.75319H3.36755V0.838953C3.36755 0.589062 3.1691 0.381836 2.9298 0.381836C2.6905 0.381836 2.49206 0.589062 2.49206 0.838953V1.78976C0.916183 1.94213 0.151592 2.92341 0.0348606 4.38009C0.0231875 4.55684 0.163265 4.70312 0.326689 4.70312H10.2022C10.3714 4.70312 10.5115 4.55075 10.494 4.38009C10.3773 2.92341 9.61267 1.94213 8.03679 1.78976Z" fill="#08632D"/>
<path d="M9.9339 5.61719H0.595376C0.274365 5.61719 0.0117188 5.89143 0.0117188 6.22665V9.98111C0.0117188 11.8096 0.887205 13.0286 2.93001 13.0286H7.59927C9.64207 13.0286 10.5176 11.8096 10.5176 9.98111V6.22665C10.5176 5.89143 10.2549 5.61719 9.9339 5.61719ZM3.63623 10.7186C3.60705 10.743 3.57787 10.7734 3.54868 10.7917C3.51366 10.8161 3.47864 10.8344 3.44363 10.8466C3.40861 10.8649 3.37359 10.8771 3.33857 10.8832C3.29771 10.8893 3.26269 10.8953 3.22184 10.8953C3.14596 10.8953 3.07008 10.8771 3.00005 10.8466C2.92417 10.8161 2.8658 10.7734 2.80744 10.7186C2.70238 10.6028 2.63818 10.4443 2.63818 10.2859C2.63818 10.1274 2.70238 9.96892 2.80744 9.85312C2.8658 9.79826 2.92417 9.7556 3.00005 9.72512C3.1051 9.67637 3.22184 9.66418 3.33857 9.68856C3.37359 9.69465 3.40861 9.70684 3.44363 9.72512C3.47864 9.73731 3.51366 9.7556 3.54868 9.77998C3.57787 9.80436 3.60705 9.82874 3.63623 9.85312C3.74129 9.96892 3.80549 10.1274 3.80549 10.2859C3.80549 10.4443 3.74129 10.6028 3.63623 10.7186ZM3.63623 8.58538C3.52534 8.69509 3.37359 8.76213 3.22184 8.76213C3.07008 8.76213 2.91833 8.69509 2.80744 8.58538C2.70238 8.46958 2.63818 8.31111 2.63818 8.15264C2.63818 7.99417 2.70238 7.83571 2.80744 7.7199C2.97086 7.54925 3.22767 7.49439 3.44363 7.59191C3.5195 7.62238 3.5837 7.66505 3.63623 7.7199C3.74129 7.83571 3.80549 7.99417 3.80549 8.15264C3.80549 8.31111 3.74129 8.46958 3.63623 8.58538ZM5.67903 10.7186C5.56814 10.8283 5.41639 10.8953 5.26464 10.8953C5.11289 10.8953 4.96113 10.8283 4.85024 10.7186C4.74518 10.6028 4.68098 10.4443 4.68098 10.2859C4.68098 10.1274 4.74518 9.96892 4.85024 9.85312C5.06619 9.62761 5.46308 9.62761 5.67903 9.85312C5.78409 9.96892 5.84829 10.1274 5.84829 10.2859C5.84829 10.4443 5.78409 10.6028 5.67903 10.7186ZM5.67903 8.58538C5.64985 8.60976 5.62067 8.63414 5.59149 8.65852C5.55647 8.6829 5.52145 8.70118 5.48643 8.71337C5.45141 8.73166 5.41639 8.74385 5.38137 8.74994C5.34051 8.75604 5.30549 8.76213 5.26464 8.76213C5.11289 8.76213 4.96113 8.69509 4.85024 8.58538C4.74518 8.46958 4.68098 8.31111 4.68098 8.15264C4.68098 7.99417 4.74518 7.83571 4.85024 7.7199C4.90277 7.66505 4.96697 7.62238 5.04285 7.59191C5.2588 7.49439 5.51561 7.54925 5.67903 7.7199C5.78409 7.83571 5.84829 7.99417 5.84829 8.15264C5.84829 8.31111 5.78409 8.46958 5.67903 8.58538ZM7.72183 10.7186C7.61094 10.8283 7.45919 10.8953 7.30744 10.8953C7.15569 10.8953 7.00394 10.8283 6.89304 10.7186C6.78798 10.6028 6.72378 10.4443 6.72378 10.2859C6.72378 10.1274 6.78798 9.96892 6.89304 9.85312C7.10899 9.62761 7.50588 9.62761 7.72183 9.85312C7.82689 9.96892 7.8911 10.1274 7.8911 10.2859C7.8911 10.4443 7.82689 10.6028 7.72183 10.7186ZM7.72183 8.58538C7.69265 8.60976 7.66347 8.63414 7.63429 8.65852C7.59927 8.6829 7.56425 8.70118 7.52923 8.71337C7.49421 8.73166 7.45919 8.74385 7.42417 8.74994C7.38331 8.75604 7.34246 8.76213 7.30744 8.76213C7.15569 8.76213 7.00394 8.69509 6.89304 8.58538C6.78798 8.46958 6.72378 8.31111 6.72378 8.15264C6.72378 7.99417 6.78798 7.83571 6.89304 7.7199C6.95141 7.66505 7.00977 7.62238 7.08565 7.59191C7.19071 7.54315 7.30744 7.53096 7.42417 7.55534C7.45919 7.56144 7.49421 7.57363 7.52923 7.59191C7.56425 7.6041 7.59927 7.62238 7.63429 7.64676L7.72183 7.7199C7.82689 7.83571 7.8911 7.99417 7.8911 8.15264C7.8911 8.31111 7.82689 8.46958 7.72183 8.58538Z" fill="#08632D"/>
</svg>
