<svg width="14" height="14" viewBox="0 0 14 14" fill="none" xmlns="http://www.w3.org/2000/svg">
<path id="Vector" d="M2.86762 10.6964C2.90013 10.6964 2.93263 10.6931 2.96513 10.6883L5.69837 10.2089C5.73087 10.2024 5.76175 10.1878 5.7845 10.1634L12.6729 3.27501C12.6879 3.25998 12.6999 3.24212 12.708 3.22246C12.7162 3.20281 12.7204 3.18173 12.7204 3.16045C12.7204 3.13917 12.7162 3.11809 12.708 3.09843C12.6999 3.07878 12.6879 3.06092 12.6729 3.04589L9.97213 0.343512C9.94125 0.312637 9.90062 0.296387 9.85675 0.296387C9.81287 0.296387 9.77225 0.312637 9.74137 0.343512L2.853 7.23189C2.82862 7.25626 2.814 7.28551 2.8075 7.31801L2.32812 10.0513C2.31232 10.1383 2.31797 10.2279 2.34458 10.3123C2.3712 10.3967 2.41798 10.4733 2.48087 10.5355C2.58812 10.6395 2.723 10.6964 2.86762 10.6964ZM3.96287 7.86239L9.85675 1.97014L11.0479 3.16126L5.154 9.05351L3.70937 9.30864L3.96287 7.86239ZM12.98 12.0614H1.02C0.732375 12.0614 0.5 12.2938 0.5 12.5814V13.1664C0.5 13.2379 0.5585 13.2964 0.63 13.2964H13.37C13.4415 13.2964 13.5 13.2379 13.5 13.1664V12.5814C13.5 12.2938 13.2676 12.0614 12.98 12.0614Z" fill="white"/>
</svg>
