<svg width="12" height="14" viewBox="0 0 12 14" fill="none" xmlns="http://www.w3.org/2000/svg">
<path d="M2.71013 8.33643H1.16736C0.531755 8.33643 0.0117188 8.89984 0.0117188 9.58845V12.7185C0.0117188 13.0628 0.271737 13.3445 0.589537 13.3445H2.71013C3.02793 13.3445 3.28795 13.0628 3.28795 12.7185V8.96244C3.28795 8.61813 3.02793 8.33643 2.71013 8.33643Z" fill="#08632D"/>
<path d="M6.55781 5.83301H5.01503C4.37941 5.83301 3.85938 6.39642 3.85938 7.08503V12.7192C3.85938 13.0635 4.11939 13.3452 4.43719 13.3452H7.13563C7.45343 13.3452 7.71345 13.0635 7.71345 12.7192V7.08503C7.71345 6.39642 7.19919 5.83301 6.55781 5.83301Z" fill="#08632D"/>
<path d="M10.4136 10.2144H8.87079C8.55299 10.2144 8.29297 10.4961 8.29297 10.8404V12.7184C8.29297 13.0627 8.55299 13.3444 8.87079 13.3444H10.9914C11.3092 13.3444 11.5692 13.0627 11.5692 12.7184V11.4664C11.5692 10.7778 11.0492 10.2144 10.4136 10.2144Z" fill="#08632D"/>
<path d="M7.52892 2.60888C7.70805 2.41481 7.77739 2.18319 7.71961 1.98286C7.66182 1.78254 7.4827 1.63856 7.22846 1.59474L6.67375 1.49457C6.65064 1.49457 6.59864 1.45075 6.58708 1.42571L6.28084 0.762139C6.04971 0.255068 5.5239 0.255068 5.29277 0.762139L4.98652 1.42571C4.98075 1.45075 4.92874 1.49457 4.90563 1.49457L4.3509 1.59474C4.09666 1.63856 3.92331 1.78254 3.85975 1.98286C3.80197 2.18319 3.87131 2.41481 4.05043 2.60888L4.47802 3.07839C4.50113 3.09717 4.51846 3.17229 4.51268 3.19733L4.39134 3.77326C4.29889 4.20521 4.44913 4.39928 4.54735 4.4744C4.64561 4.54952 4.85941 4.64968 5.21187 4.42432L5.73191 4.09253C5.75502 4.07375 5.83014 4.07375 5.85325 4.09253L6.36751 4.42432C6.5293 4.53074 6.6622 4.56204 6.7662 4.56204C6.88755 4.56204 6.97422 4.51196 7.02622 4.4744C7.12445 4.39928 7.27468 4.20521 7.18223 3.77326L7.06089 3.19733C7.05511 3.16603 7.07245 3.09717 7.09556 3.07839L7.52892 2.60888Z" fill="#08632D"/>
</svg>
