<svg width="13" height="12" viewBox="0 0 13 12" fill="none" xmlns="http://www.w3.org/2000/svg">
<path d="M11.733 8.94278C11.5847 10.7304 10.392 11.9021 8.66163 11.9021H3.09972C1.39406 11.9021 0.00976562 10.4024 0.00976562 8.55445V3.8677C0.00976562 2.04656 1.02327 0.774443 2.59915 0.560192C2.75982 0.53341 2.92668 0.52002 3.09972 0.52002H8.66163C8.82231 0.52002 8.97681 0.526715 9.12512 0.553496C10.6021 0.740966 11.6033 1.85909 11.733 3.47937C11.7516 3.67353 11.6033 3.83422 11.424 3.83422H10.4662C9.87289 3.83422 9.32288 4.08195 8.92737 4.52385C8.45769 5.0193 8.22286 5.71562 8.27848 6.41194C8.37736 7.63049 9.36614 8.58793 10.5403 8.58793H11.424C11.6033 8.58793 11.7516 8.74862 11.733 8.94278Z" fill="#08632D"/>
<path d="M12.3699 5.5208V6.90005C12.3699 7.26829 12.098 7.56958 11.752 7.58298H10.5407C9.87326 7.58298 9.26145 7.05404 9.20583 6.33094C9.16875 5.90914 9.31707 5.51411 9.57663 5.2396C9.80528 4.98518 10.1205 4.83789 10.4665 4.83789H11.752C12.098 4.85128 12.3699 5.15256 12.3699 5.5208Z" fill="#08632D"/>
</svg>
