<svg width="14" height="16" viewBox="0 0 14 16" fill="none" xmlns="http://www.w3.org/2000/svg">
<path d="M13.3433 4.15667C13.3292 4.15667 13.3081 4.15667 13.2869 4.15667C9.56055 3.78332 5.84119 3.64244 2.15703 4.01578L0.720004 4.15667C0.424146 4.18484 0.16351 3.97352 0.135333 3.67766C0.107156 3.3818 0.318483 3.12821 0.607297 3.10003L2.04432 2.95915C5.79188 2.57876 9.58872 2.72669 13.3926 3.10003C13.6814 3.12821 13.8928 3.38885 13.8646 3.67766C13.8434 3.95238 13.611 4.15667 13.3433 4.15667Z" fill="#FDFDFD"/>
<path d="M4.53861 3.44516C4.51043 3.44516 4.48225 3.44516 4.44703 3.43812C4.16526 3.38881 3.96802 3.11408 4.01733 2.83231L4.17231 1.90952C4.28501 1.23327 4.43999 0.296387 6.08127 0.296387H7.92686C9.57521 0.296387 9.73018 1.26849 9.83585 1.91656L9.99082 2.83231C10.0401 3.12113 9.84289 3.39585 9.56112 3.43812C9.27231 3.48743 8.99758 3.29019 8.95532 3.00842L8.80034 2.09267C8.70172 1.47982 8.68059 1.36007 7.9339 1.36007H6.08831C5.34165 1.36007 5.32756 1.45869 5.2219 2.08562L5.05988 3.00137C5.01761 3.26201 4.7922 3.44516 4.53861 3.44516Z" fill="#FDFDFD"/>
<path d="M9.26562 15.4414H4.74321C2.28477 15.4414 2.18615 14.0818 2.10866 12.9829L1.65079 5.88937C1.62965 5.60056 1.85507 5.34697 2.14388 5.32584C2.43974 5.31175 2.68629 5.53012 2.70742 5.81894L3.1653 12.9125C3.24279 13.9832 3.27096 14.3847 4.74321 14.3847H9.26562C10.7449 14.3847 10.7731 13.9832 10.8435 12.9125L11.3014 5.81894C11.3225 5.53012 11.5761 5.31175 11.8649 5.32584C12.1538 5.34697 12.3792 5.59351 12.358 5.88937L11.9002 12.9829C11.8227 14.0818 11.7241 15.4414 9.26562 15.4414Z" fill="#FDFDFD"/>
<path d="M8.17289 11.5674H5.82716C5.53833 11.5674 5.29883 11.3279 5.29883 11.0391C5.29883 10.7502 5.53833 10.5107 5.82716 10.5107H8.17289C8.46171 10.5107 8.70121 10.7502 8.70121 11.0391C8.70121 11.3279 8.46171 11.5674 8.17289 11.5674Z" fill="#FDFDFD"/>
<path d="M8.7643 8.74951H5.24219C4.95337 8.74951 4.71387 8.51 4.71387 8.22119C4.71387 7.93238 4.95337 7.69287 5.24219 7.69287H8.7643C9.05312 7.69287 9.29262 7.93238 9.29262 8.22119C9.29262 8.51 9.05312 8.74951 8.7643 8.74951Z" fill="#FDFDFD"/>
</svg>
