<svg width="32" height="32" viewBox="0 0 32 32" fill="none" xmlns="http://www.w3.org/2000/svg">
<g clip-path="url(#clip0_272_2269)">
<path fill-rule="evenodd" clip-rule="evenodd" d="M28.375 2.087H3.625C3.07799 2.087 2.55339 2.30688 2.16659 2.69827C1.7798 3.08966 1.5625 3.6205 1.5625 4.174V20.87C1.5625 21.4235 1.7798 21.9544 2.16659 22.3458C2.55339 22.7371 3.07799 22.957 3.625 22.957H8.78125C9.42164 22.957 10.0532 23.1079 10.626 23.3977C11.1988 23.6875 11.697 24.1082 12.0813 24.6266L16 29.913L19.9187 24.6266C20.303 24.1082 20.8012 23.6875 21.374 23.3977C21.9468 23.1079 22.5784 22.957 23.2188 22.957H28.375C28.922 22.957 29.4466 22.7371 29.8334 22.3458C30.2202 21.9544 30.4375 21.4235 30.4375 20.87V4.174C30.4375 3.6205 30.2202 3.08966 29.8334 2.69827C29.4466 2.30688 28.922 2.087 28.375 2.087ZM3.625 0C2.53098 0 1.48177 0.43976 0.708185 1.22254C-0.065403 2.00531 -0.5 3.06699 -0.5 4.174L-0.5 20.87C-0.5 21.977 -0.065403 23.0387 0.708185 23.8215C1.48177 24.6043 2.53098 25.044 3.625 25.044H8.78125C9.10144 25.044 9.41724 25.1195 9.70363 25.2644C9.99002 25.4092 10.2391 25.6196 10.4313 25.8788L14.35 31.1652C14.5421 31.4244 14.7912 31.6348 15.0776 31.7797C15.364 31.9246 15.6798 32 16 32C16.3202 32 16.636 31.9246 16.9224 31.7797C17.2088 31.6348 17.4579 31.4244 17.65 31.1652L21.5688 25.8788C21.7609 25.6196 22.01 25.4092 22.2964 25.2644C22.5828 25.1195 22.8986 25.044 23.2188 25.044H28.375C29.469 25.044 30.5182 24.6043 31.2918 23.8215C32.0654 23.0387 32.5 21.977 32.5 20.87V4.174C32.5 3.06699 32.0654 2.00531 31.2918 1.22254C30.5182 0.43976 29.469 0 28.375 0L3.625 0Z" fill="#399B53"/>
<path fill-rule="evenodd" clip-rule="evenodd" d="M14.0214 10.5287C13.6071 9.92278 12.9945 9.45953 12.2758 9.20855C11.5571 8.95757 10.7711 8.93242 10.0358 9.1369C9.30058 9.34137 8.65588 9.7644 8.1986 10.3424C7.74133 10.9205 7.4962 11.6222 7.50004 12.3423C7.50043 12.9386 7.67132 13.5238 7.99487 14.0369C8.31843 14.5499 8.78277 14.972 9.33938 15.259C9.896 15.5459 10.5245 15.6873 11.1591 15.6682C11.7938 15.6491 12.4113 15.4704 12.9473 15.1506C12.6686 15.9276 12.1497 16.7565 11.2946 17.5874C11.131 17.7463 11.0413 17.9597 11.0453 18.1807C11.0493 18.4017 11.1466 18.6122 11.3159 18.7658C11.4851 18.9194 11.7124 19.0036 11.9477 18.9999C12.1831 18.9961 12.4072 18.9047 12.5708 18.7458C15.7315 15.6699 15.321 12.3263 14.0214 10.5327V10.5287ZM22.5294 10.5287C22.1151 9.92278 21.5025 9.45953 20.7838 9.20855C20.0651 8.95757 19.279 8.93242 18.5438 9.1369C17.8086 9.34137 17.1639 9.7644 16.7066 10.3424C16.2493 10.9205 16.0042 11.6222 16.008 12.3423C16.0084 12.9386 16.1793 13.5238 16.5029 14.0369C16.8264 14.5499 17.2907 14.972 17.8474 15.259C18.404 15.5459 19.0324 15.6873 19.6671 15.6682C20.3018 15.6491 20.9193 15.4704 21.4553 15.1506C21.1766 15.9276 20.6576 16.7565 19.8026 17.5874C19.639 17.7463 19.5493 17.9597 19.5533 18.1807C19.5573 18.4017 19.6546 18.6122 19.8239 18.7658C19.9931 18.9194 20.2204 19.0036 20.4557 18.9999C20.6911 18.9961 20.9152 18.9047 21.0788 18.7458C24.2395 15.6699 23.829 12.3263 22.5294 10.5327V10.5287Z" fill="#09B451"/>
</g>
<defs>
<clipPath id="clip0_272_2269">
<rect width="32" height="32" fill="white"/>
</clipPath>
</defs>
</svg>
