<svg width="18" height="17" viewBox="0 0 18 17" fill="none" xmlns="http://www.w3.org/2000/svg">
<rect width="18" height="17" rx="8" fill="#2FED42" fill-opacity="0.3"/>
<path d="M13.5 5.84375V4.78125C13.5 4.19528 12.9954 3.71875 12.375 3.71875H5.0625C4.13212 3.71875 3.375 4.43381 3.375 5.3125V11.6875C3.375 12.8568 4.38412 13.2812 5.0625 13.2812H13.5C14.1204 13.2812 14.625 12.8047 14.625 12.2188V6.90625C14.625 6.32028 14.1204 5.84375 13.5 5.84375ZM12.375 10.625H11.25V8.5H12.375V10.625ZM5.0625 5.84375C4.91767 5.83763 4.78092 5.77899 4.68072 5.68003C4.58052 5.58107 4.5246 5.44942 4.5246 5.3125C4.5246 5.17558 4.58052 5.04393 4.68072 4.94497C4.78092 4.84601 4.91767 4.78737 5.0625 4.78125H12.375V5.84375H5.0625Z" fill="#08632D"/>
</svg>
