<svg width="631" height="489" viewBox="0 0 631 489" fill="none" xmlns="http://www.w3.org/2000/svg">
<path d="M313.718 488.622C309.866 488.62 306.022 488.299 302.223 487.665C267.353 481.839 246.786 453.358 225.008 423.208C209.701 402.021 193.875 380.108 172.595 366.676C152.161 353.779 127.649 349.408 103.939 345.156C91.0252 342.855 77.673 340.473 65.0044 336.748C26.7534 325.498 -8.31005 291.296 1.7431 255.668C9.46314 228.315 39.578 215.218 56.8385 209.845C63.7264 207.7 70.8669 205.882 77.777 204.124C94.3613 199.901 111.51 195.538 126.074 186.373C146.878 173.268 160.424 151.748 173.516 130.94C180.946 119.066 188.666 106.859 197.687 96.1139C224.569 64.0932 268.044 44.9773 313.992 44.9773C352.585 44.9773 388.161 58.075 414.175 81.8586C425.521 92.2477 435.559 104.603 445.27 116.566C463.69 139.251 481.084 160.682 507.068 170.641C520.866 175.932 535.994 177.253 550.617 178.537C557.772 179.167 565.173 179.813 572.372 180.919C588.504 183.39 617.08 191.13 627.304 215.181C639.839 244.678 614.116 279.133 582.218 292.81C569.14 298.412 555.082 301.996 541.477 305.425C523.779 309.929 505.47 314.59 489.466 323.747C459.893 340.696 441.213 370.876 423.143 400.07C418.395 407.743 413.484 415.653 408.461 423.223C395.376 442.94 359.978 488.622 313.718 488.622ZM313.955 47.2926C268.683 47.2926 225.855 66.1042 199.403 97.6129C190.487 108.24 182.826 120.417 175.418 132.186C162.192 153.21 148.521 174.952 127.255 188.332C112.395 197.682 95.0747 202.098 78.312 206.365C71.4316 208.116 64.3208 209.927 57.5072 212.056C40.6851 217.296 11.3653 230.007 3.93503 256.321C-5.72431 290.606 28.4549 323.643 65.6062 334.589C78.1559 338.299 91.4487 340.651 104.303 342.937C128.228 347.204 152.971 351.612 173.783 364.747C195.443 378.423 211.403 400.515 226.836 421.887C248.331 451.644 268.631 479.769 302.572 485.424C306.255 486.04 309.983 486.35 313.718 486.351C358.871 486.351 393.675 441.381 406.544 422.043C411.544 414.533 416.448 406.607 421.189 398.949C439.408 369.518 458.244 339.078 488.321 321.847C504.571 312.534 523.028 307.837 540.883 303.295C554.399 299.852 568.375 296.297 581.289 290.761C612.176 277.523 637.179 244.374 625.172 216.13C615.022 192.243 584.603 185.171 572.001 183.234C564.875 182.143 557.512 181.498 550.394 180.874C535.608 179.576 520.324 178.232 506.221 172.83C479.658 162.649 461.26 139.986 443.465 118.057C433.806 106.184 423.819 93.858 412.6 83.595C387.01 60.1676 351.976 47.3 313.955 47.3V47.2926Z" fill="#09B451"/>
<path d="M78.1715 128.439C71.194 128.431 64.5045 125.659 59.5706 120.732C54.6367 115.804 51.8614 109.123 51.8535 102.154C51.8614 95.1856 54.6367 88.5047 59.5706 83.5771C64.5045 78.6495 71.194 75.8777 78.1715 75.8699C85.1491 75.8777 91.8386 78.6495 96.7724 83.5771C101.706 88.5047 104.482 95.1856 104.489 102.154C104.482 109.123 101.706 115.804 96.7724 120.732C91.8386 125.659 85.1491 128.431 78.1715 128.439ZM78.1715 78.1554C71.7996 78.1613 65.6903 80.6914 61.184 85.1906C56.6777 89.6898 54.1425 95.7905 54.1346 102.154C54.1425 108.517 56.6767 114.616 61.1814 119.115C65.6861 123.614 71.7935 126.145 78.1641 126.153C84.5347 126.145 90.6421 123.614 95.1468 119.115C99.6515 114.616 102.186 108.517 102.194 102.154C102.186 95.7931 99.6525 89.6946 95.1494 85.1959C90.6463 80.6971 84.5408 78.1653 78.1715 78.1554Z" fill="#09B451"/>
<path d="M176.595 52.5689C169.618 52.561 162.928 49.7892 157.994 44.8616C153.061 39.9341 150.285 33.253 150.277 26.2844C150.285 19.3157 153.061 12.6348 157.994 7.70723C162.928 2.77964 169.618 0.00785644 176.595 0C183.573 0.00785644 190.262 2.77964 195.196 7.70723C200.13 12.6348 202.905 19.3157 202.913 26.2844C202.905 33.253 200.13 39.9341 195.196 44.8616C190.262 49.7892 183.573 52.561 176.595 52.5689ZM176.595 2.28557C170.223 2.29146 164.114 4.82157 159.608 9.32074C155.102 13.8199 152.566 19.9206 152.558 26.2844C152.566 32.6469 155.1 38.7466 159.605 43.2455C164.11 47.7445 170.217 50.2754 176.588 50.2833C182.958 50.2754 189.066 47.7445 193.571 43.2455C198.075 38.7466 200.609 32.6469 200.617 26.2844C200.61 19.9232 198.076 13.8247 193.573 9.32599C189.07 4.82725 182.965 2.29539 176.595 2.28557Z" fill="#09B451"/>
</svg>
