<svg width="11" height="10" viewBox="0 0 11 10" fill="none" xmlns="http://www.w3.org/2000/svg">
<path d="M7.27042 1.62195H2.07883C1.92485 1.62195 1.78186 1.62745 1.64987 1.63295C0.346472 1.70994 0 2.1884 0 3.6733V3.99227C0 4.29475 0.24748 4.54223 0.549956 4.54223H8.7993C9.10177 4.54223 9.34925 4.29475 9.34925 3.99227V3.6733C9.34925 2.03442 8.93129 1.62195 7.27042 1.62195Z" fill="#08632D"/>
<path d="M0.549956 5.36639C0.24748 5.36639 0 5.61387 0 5.91635V7.51672C0 9.15559 0.417967 9.56806 2.07883 9.56806H7.27042C8.90379 9.56806 9.33276 9.17209 9.34925 7.60472V5.91635C9.34925 5.61387 9.10177 5.36639 8.7993 5.36639H0.549956ZM2.72778 8.22617H1.78736C1.56188 8.22617 1.37489 8.03918 1.37489 7.8137C1.37489 7.58822 1.56188 7.40123 1.78736 7.40123H2.73328C2.95876 7.40123 3.14575 7.58822 3.14575 7.8137C3.14575 8.03918 2.95876 8.22617 2.72778 8.22617ZM5.80204 8.22617H3.91019C3.68471 8.22617 3.49772 8.03918 3.49772 7.8137C3.49772 7.58822 3.68471 7.40123 3.91019 7.40123H5.80204C6.02752 7.40123 6.2145 7.58822 6.2145 7.8137C6.2145 8.03918 6.03302 8.22617 5.80204 8.22617Z" fill="#08632D"/>
<path d="M10.9998 5.35109V2.4693C10.9998 0.74794 10.0153 0 8.53045 0H3.61933C3.20136 0 2.82739 0.0604951 2.49742 0.186985C2.23894 0.280478 2.00796 0.417966 1.82097 0.599452C1.72198 0.692944 1.79897 0.846932 1.94196 0.846932H7.92C9.1574 0.846932 10.1583 1.84785 10.1583 3.08525V7.02846C10.1583 7.16595 10.3068 7.24294 10.4058 7.14395C10.7853 6.74248 10.9998 6.15403 10.9998 5.35109Z" fill="#08632D"/>
</svg>
