<?xml version="1.0" standalone="no"?>
<!DOCTYPE svg PUBLIC "-//W3C//DTD SVG 20010904//EN"
 "http://www.w3.org/TR/2001/REC-SVG-20010904/DTD/svg10.dtd">
<svg version="1.0" xmlns="http://www.w3.org/2000/svg"
 width="512.000000pt" height="512.000000pt" viewBox="0 0 512.000000 512.000000"
 preserveAspectRatio="xMidYMid meet">

<g transform="translate(0.000000,512.000000) scale(0.100000,-0.100000)"
fill="#000000" stroke="none">
<path d="M2280 4143 c-82 -13 -275 -59 -335 -80 -100 -36 -217 -98 -269 -144
-24 -21 -47 -39 -50 -39 -4 0 -29 18 -57 40 -87 69 -232 129 -409 169 -176 40
-172 45 -62 -66 54 -54 137 -147 186 -208 120 -148 115 -141 90 -127 -102 54
-321 -7 -511 -144 -83 -60 -217 -174 -211 -179 2 -2 48 3 103 11 115 17 529
30 628 20 l67 -8 -34 -41 c-258 -320 -459 -789 -541 -1267 -19 -106 -44 -335
-45 -392 l0 -38 328 0 328 0 -13 93 c-34 262 -40 640 -13 872 29 247 99 464
203 633 24 38 43 59 50 55 25 -14 176 -130 257 -197 47 -38 145 -129 218 -201
88 -87 132 -124 132 -112 0 11 -9 64 -20 118 -46 227 -115 384 -211 482 -32
34 -59 62 -59 63 0 5 301 25 400 27 l115 2 -75 51 c-169 115 -327 186 -462
207 l-80 12 118 115 c66 62 160 147 209 188 50 41 94 78 100 83 9 9 -26 10
-75 2z"/>
</g>
</svg>
