<svg width="14" height="15" viewBox="0 0 14 15" fill="none" xmlns="http://www.w3.org/2000/svg">
<path d="M7.67068 10.1442H6.46973C5.62013 10.1442 4.92383 9.42875 4.92383 8.5472C4.92383 8.28529 5.14102 8.0681 5.40293 8.0681C5.66484 8.0681 5.88203 8.28529 5.88203 8.5472C5.88203 8.89854 6.14394 9.186 6.46973 9.186H7.67068C7.91982 9.186 8.11785 8.96242 8.11785 8.68774C8.11785 8.34278 8.02203 8.29168 7.80483 8.21502L5.88203 7.54428C5.4732 7.40374 4.92383 7.1035 4.92383 6.16446C4.92383 5.36598 5.55625 4.70801 6.3292 4.70801H7.53015C8.37976 4.70801 9.07605 5.42347 9.07605 6.305C9.07605 6.56691 8.85886 6.7841 8.59695 6.7841C8.33504 6.7841 8.11785 6.56691 8.11785 6.305C8.11785 5.95368 7.85594 5.66621 7.53015 5.66621H6.3292C6.08006 5.66621 5.88203 5.88979 5.88203 6.16446C5.88203 6.50942 5.97785 6.56052 6.19505 6.63718L8.11785 7.30792C8.52668 7.44846 9.07605 7.74869 9.07605 8.68774C9.07605 9.49263 8.44364 10.1442 7.67068 10.1442Z" fill="white"/>
<path d="M6.99961 10.7826C6.7377 10.7826 6.52051 10.5654 6.52051 10.3035V4.5543C6.52051 4.29239 6.7377 4.0752 6.99961 4.0752C7.26152 4.0752 7.47871 4.29239 7.47871 4.5543V10.3035C7.47871 10.5654 7.26152 10.7826 6.99961 10.7826Z" fill="white"/>
<path d="M6.99995 14.2963C3.21185 14.2963 0.132812 11.2173 0.132812 7.42915C0.132812 3.64105 3.21185 0.562012 6.99995 0.562012C7.26186 0.562012 7.47906 0.779205 7.47906 1.04111C7.47906 1.30302 7.26186 1.52022 6.99995 1.52022C3.74205 1.52022 1.09102 4.17125 1.09102 7.42915C1.09102 10.6871 3.74205 13.3381 6.99995 13.3381C10.2579 13.3381 12.9089 10.6871 12.9089 7.42915C12.9089 7.16724 13.1261 6.95005 13.388 6.95005C13.6499 6.95005 13.8671 7.16724 13.8671 7.42915C13.8671 11.2173 10.7881 14.2963 6.99995 14.2963Z" fill="white"/>
<path d="M12.7492 4.71411H10.1939C9.93204 4.71411 9.71484 4.49691 9.71484 4.235V1.67979C9.71484 1.41788 9.93204 1.20068 10.1939 1.20068C10.4559 1.20068 10.673 1.41788 10.673 1.67979V3.7559H12.7492C13.0111 3.7559 13.2283 3.97309 13.2283 4.235C13.2283 4.49691 13.0111 4.71411 12.7492 4.71411Z" fill="white"/>
<path d="M10.1933 4.7141C10.072 4.7141 9.95058 4.66939 9.85476 4.57357C9.66951 4.38831 9.66951 4.08169 9.85476 3.89644L13.0488 0.702416C13.234 0.517163 13.5407 0.517163 13.7259 0.702416C13.9112 0.88767 13.9112 1.1943 13.7259 1.37955L10.5319 4.57357C10.4361 4.66939 10.3147 4.7141 10.1933 4.7141Z" fill="white"/>
</svg>
