<svg width="32" height="32" viewBox="0 0 32 32" fill="none" xmlns="http://www.w3.org/2000/svg">
<path d="M0.5 11.5C0.5 8.45001 1.7116 5.52494 3.86827 3.36827C6.02494 1.2116 8.95001 0 12 0C15.05 0 17.9751 1.2116 20.1317 3.36827C22.2884 5.52494 23.5 8.45001 23.5 11.5C23.5 14.55 22.2884 17.4751 20.1317 19.6317C17.9751 21.7884 15.05 23 12 23C8.95001 23 6.02494 21.7884 3.86827 19.6317C1.7116 17.4751 0.5 14.55 0.5 11.5H0.5Z" fill="#399B53"/>
<path d="M25.6158 9.91667H28.625C28.8792 9.91667 29.1229 10.0176 29.3026 10.1974C29.4824 10.3771 29.5833 10.6208 29.5833 10.875V28.125C29.5833 28.3792 29.4824 28.6229 29.3026 28.8026C29.1229 28.9824 28.8792 29.0833 28.625 29.0833H11.375C11.1208 29.0833 10.8771 28.9824 10.6974 28.8026C10.5176 28.6229 10.4167 28.3792 10.4167 28.125V25.1158C9.76828 25.0226 9.12766 24.8816 8.5 24.6942V28.125C8.5 28.8875 8.8029 29.6188 9.34207 30.1579C9.88123 30.6971 10.6125 31 11.375 31H28.625C29.3875 31 30.1188 30.6971 30.6579 30.1579C31.1971 29.6188 31.5 28.8875 31.5 28.125V10.875C31.5 10.1125 31.1971 9.38123 30.6579 8.84207C30.1188 8.3029 29.3875 8 28.625 8H25.1942C25.3801 8.621 25.52 9.26117 25.6158 9.91667Z" fill="#399B53"/>
</svg>
